# xmcd
#
# Track frame offsets: 
#        150
#        17282
#        42735
#        60262
#        82365
#        96665
#        117017
#
# Disc length: 1764 seconds
#
# Revision: 5
# Processed by: cddbd v1.5.2PL0 Copyright (c) Steve Scherf et al.
# Submitted via: ExactAudioCopy v1.3
#
DISCID=5706e207
DTITLE=YANNI - A Collection Of Romantic Themes
DYEAR=1994
DGENRE=New Age
TTITLE0=Face In The Photograph
TTITLE1=To The One Who Knows
TTITLE2=Enchantment
TTITLE3=The End Of August
TTITLE4=Almost A Whisper
TTITLE5=True Nature
TTITLE6=One Man's Dream
EXTD=YEAR: 1994
EXTT0=
EXTT1=
EXTT2=
EXTT3=
EXTT4=
EXTT5=
EXTT6=
PLAYORDER=
